<?xml version="1.0" encoding="UTF-8"?>
<svg width="50px" height="50px" viewBox="0 0 50 50" version="1.1" xmlns="http://www.w3.org/2000/svg" xmlns:xlink="http://www.w3.org/1999/xlink">
    <!-- Generator: Sketch 50.2 (55047) - http://www.bohemiancoding.com/sketch -->
    <title>Dribble</title>
    <desc>Created with Sketch.</desc>
    <defs></defs>
    <g id="Dribble" stroke="none" stroke-width="1" fill="none" fill-rule="evenodd">
        <path d="M25,5 C13.9499837,5.00167307 5,13.9499837 5,25.0016731 C5,36.0500163 13.9499837,45 25,45 C36.0500163,45 45,36.0500163 45,25.0016731 C45.0000837,13.9499837 36.0500163,5.00167307 25,5 Z M37.2600614,15.3699986 C39.2101036,17.8466384 40.4250843,20.9167148 40.5817669,24.2616759 C38.3201161,23.7883655 36.1784241,23.5533834 34.2100618,23.5533834 L34.1833764,23.5533834 C32.5833396,23.5533834 31.0866983,23.7050468 29.6584017,23.9467212 C29.3283894,23.1067584 28.9800571,22.2984164 28.6283785,21.5216955 C31.7683891,20.1399938 34.8050041,18.1666959 37.2600614,15.3699986 Z M25,9.39665052 C28.6766465,9.39665052 32.0616776,10.6866682 34.7267046,12.8299496 C32.6899976,15.2732954 29.9916765,17.0515974 27.068328,18.2999557 C25.0199931,14.3349562 23.040003,11.5032918 21.6833137,9.76823851 C22.7549962,9.53334003 23.8633189,9.39665052 25,9.39665052 Z M18.1083896,11.0216997 C19.1850913,12.3066981 21.3617504,15.1183694 23.6750989,19.5133469 C18.9650831,20.9167148 14.2217733,21.2483165 11.3500389,21.2483165 C11.2683933,21.2483165 11.1916832,21.2483165 11.1117106,21.2449703 L11.1083645,21.2449703 C10.6233426,21.2449703 10.2116847,21.2333425 9.86167926,21.2149388 C10.9800403,16.7399888 14.0466869,13.0283752 18.1083896,11.0216997 Z M9.39497746,25.0016731 C9.39497746,24.9366744 9.39665052,24.8466635 9.4099514,24.7700371 C9.84662166,24.7983955 10.424917,24.8050041 11.1099539,24.8050041 L11.1133,24.8050041 C14.2516375,24.7866841 19.7249898,24.5283627 25.2732954,22.7716432 C25.571603,23.4333409 25.8716675,24.1216403 26.1716482,24.8399712 C22.4632971,26.0833103 19.548314,28.0483265 17.3849558,30.0083235 C15.3082624,31.9133603 13.9049782,33.7883655 13.0849248,35.0383132 C10.7850445,32.3133904 9.39665052,28.8283936 9.39497746,25.0016731 Z M25,40.616734 C21.524958,40.616734 18.324968,39.4567136 15.736651,37.5333568 C16.2866715,36.6316578 17.4616659,34.8783681 19.3533181,33.0799893 C21.2883028,31.2133494 23.9632846,29.2999473 27.4566467,28.1616767 C28.6400064,31.4866447 29.7216436,35.3033269 30.5432864,39.5783455 C28.8200283,40.2383701 26.9500422,40.616734 25,40.616734 Z M33.8300248,37.8433759 C33.0416761,33.974996 32.0366652,30.4650706 30.9449896,27.3467262 C31.9616282,27.1967358 33.0383299,27.1167633 34.1466526,27.1167633 L34.188312,27.1167633 L34.2099782,27.1167633 C36.0566249,27.1167633 38.1166713,27.3483993 40.3183427,27.8534143 C39.5616985,31.9867242 37.1567496,35.5417388 33.8300248,37.8433759 Z" id="Dribbble_3_" fill="#D4D4D4" fill-rule="nonzero"></path>
    </g>
</svg>