<?xml version="1.0" encoding="UTF-8"?>
<svg width="50px" height="50px" viewBox="0 0 50 50" version="1.1" xmlns="http://www.w3.org/2000/svg" xmlns:xlink="http://www.w3.org/1999/xlink">
    <!-- Generator: Sketch 50.2 (55047) - http://www.bohemiancoding.com/sketch -->
    <title>Linked In</title>
    <desc>Created with Sketch.</desc>
    <defs></defs>
    <g id="Linked-In" stroke="none" stroke-width="1" fill="none" fill-rule="evenodd">
        <path d="M14.3077956,17 C14.6901693,17 15,17.2986357 15,17.6668953 L15,44.3331047 C15,44.7014977 14.6901693,45 14.3077956,45 L5.69220439,45 C5.30983069,45 5,44.7014977 5,44.3331047 L5,17.6668953 C5,17.2986357 5.30983069,17 5.69220439,17 L14.3077956,17 Z M10.0020098,5 C12.7579508,5 15.0001218,7.24253281 15,9.99896416 C15,12.7564923 12.7579508,15 10.0020098,15 C7.2438763,15 5,12.7566141 5,9.99896416 C5,7.24253281 7.2438763,5 10.0020098,5 Z M34.8530301,17 C43.7944207,17 45,23.6018855 45,30.0599261 L45,44.3485281 C45,44.7084012 44.7145184,45 44.3621948,45 L36.4381035,45 C36.0857799,45 35.8002983,44.7084012 35.8002983,44.3485281 L35.8002983,31.683394 C35.8002983,28.1373023 35.5437731,25.4248341 32.3157136,25.4248341 C29.3517054,25.4248341 28.1967678,27.1168368 28.1967678,31.4599391 L28.1967678,44.3483978 C28.1967678,44.7082709 27.9112862,44.9998697 27.5589626,44.9998697 L19.6378052,44.9998697 C19.2854816,44.9998697 19,44.7082709 19,44.3483978 L19,18.2989046 C19,17.9391618 19.2854816,17.6474327 19.6378052,17.6474327 L27.2403152,17.6474327 C27.5926387,17.6474327 27.8781203,17.9391618 27.8781203,18.2989046 L27.8781203,19.990777 C29.3076968,18.400013 31.664642,17 34.8530301,17 Z" id="Combined-Shape" fill="#D4D4D4" fill-rule="nonzero"></path>
    </g>
</svg>