<?xml version="1.0" encoding="UTF-8"?>
<svg width="50px" height="50px" viewBox="0 0 50 50" version="1.1" xmlns="http://www.w3.org/2000/svg" xmlns:xlink="http://www.w3.org/1999/xlink">
    <!-- Generator: Sketch 50.2 (55047) - http://www.bohemiancoding.com/sketch -->
    <title>Location</title>
    <desc>Created with Sketch.</desc>
    <defs></defs>
    <g id="Location" stroke="none" stroke-width="1" fill="none" fill-rule="evenodd">
        <path d="M25,21.4705882 C26.3807119,21.4705882 27.5,20.4171406 27.5,19.1176471 C27.5,17.8181535 26.3807119,16.7647059 25,16.7647059 C23.6192881,16.7647059 22.5,17.8181535 22.5,19.1176471 C22.5,20.4171406 23.6192881,21.4705882 25,21.4705882 Z M25,23.8235294 C22.2385763,23.8235294 20,21.7166341 20,19.1176471 C20,16.51866 22.2385763,14.4117647 25,14.4117647 C27.7614237,14.4117647 30,16.51866 30,19.1176471 C30,21.7166341 27.7614237,23.8235294 25,23.8235294 Z M28.75,20.2941176 C28.0596441,20.2941176 27.5,19.7673938 27.5,19.1176471 C27.5,18.4679003 28.0596441,17.9411765 28.75,17.9411765 L31.25,17.9411765 C31.9403559,17.9411765 32.5,18.4679003 32.5,19.1176471 C32.5,19.7673938 31.9403559,20.2941176 31.25,20.2941176 L28.75,20.2941176 Z M23.75,22.6470588 C23.75,21.9973121 24.3096441,21.4705882 25,21.4705882 C25.6903559,21.4705882 26.25,21.9973121 26.25,22.6470588 L26.25,25 C26.25,25.6497468 25.6903559,26.1764706 25,26.1764706 C24.3096441,26.1764706 23.75,25.6497468 23.75,25 L23.75,22.6470588 Z M21.25,17.9411765 C21.9403559,17.9411765 22.5,18.4679003 22.5,19.1176471 C22.5,19.7673938 21.9403559,20.2941176 21.25,20.2941176 L18.75,20.2941176 C18.0596441,20.2941176 17.5,19.7673938 17.5,19.1176471 C17.5,18.4679003 18.0596441,17.9411765 18.75,17.9411765 L21.25,17.9411765 Z M26.25,15.5882353 C26.25,16.2379821 25.6903559,16.7647059 25,16.7647059 C24.3096441,16.7647059 23.75,16.2379821 23.75,15.5882353 L23.75,13.2352941 C23.75,12.5855474 24.3096441,12.0588235 25,12.0588235 C25.6903559,12.0588235 26.25,12.5855474 26.25,13.2352941 L26.25,15.5882353 Z M12.042703,25.9815173 C10.7065186,23.8556508 10,21.4240841 10,18.9495798 C10,11.2530044 16.7312358,5 25,5 C33.2687642,5 40,11.2530044 40,18.9495798 C40,21.4247845 39.2931003,23.8570189 37.95891,25.978638 L26.7071786,44.0789817 C26.3536599,44.6509184 25.7017643,45 25,45 C24.2988442,45 23.6487358,44.6515844 23.2943573,44.0814596 L12.042703,25.9815173 Z M24.9999965,42.1658607 L35.8042878,24.785323 C36.9134044,23.02159 37.5,21.0032865 37.5,18.9495798 C37.5,12.5594326 31.8953147,7.35294118 25,7.35294118 C18.1046853,7.35294118 12.5,12.5594326 12.5,18.9495798 C12.5,21.0027254 13.0862951,23.0205287 14.1974579,24.7884132 L24.9999965,42.1658607 Z" id="Combined-Shape" fill="#FFFFFF" fill-rule="nonzero"></path>
    </g>
</svg>