<?xml version="1.0" encoding="UTF-8"?>
<svg width="50px" height="50px" viewBox="0 0 50 50" version="1.1" xmlns="http://www.w3.org/2000/svg" xmlns:xlink="http://www.w3.org/1999/xlink">
    <!-- Generator: Sketch 50.2 (55047) - http://www.bohemiancoding.com/sketch -->
    <title>Twitter</title>
    <desc>Created with Sketch.</desc>
    <defs></defs>
    <g id="Twitter" stroke="none" stroke-width="1" fill="none" fill-rule="evenodd">
        <path d="M17.57968,42 C32.67456,42 40.92944,29.3051561 40.92944,18.2971975 C40.92944,17.9364646 40.92224,17.5773558 40.90592,17.2201961 C42.50816,16.0444438 43.90112,14.5773115 45,12.9068305 C43.52944,13.5698255 41.94704,14.016803 40.28704,14.2182028 C41.98128,13.1871659 43.28224,11.5551782 43.89568,9.61004636 C42.30976,10.5642589 40.55408,11.2584384 38.6848,11.6320025 C37.1872,10.0128459 35.05456,9 32.69456,9 C28.16208,9 24.48656,12.7309305 24.48656,17.3301539 C24.48656,17.9840534 24.55872,18.6195996 24.69952,19.2296459 C17.8792,18.8815817 11.83104,15.5664442 7.784,10.5257656 C7.07856,11.756578 6.67248,13.1871659 6.67248,14.7127691 C6.67248,17.6031805 8.12144,20.154623 10.32448,21.6472551 C8.9784,21.6051886 7.7136,21.2296755 6.60768,20.6050114 C6.60576,20.6397691 6.60576,20.6746892 6.60576,20.7112335 C6.60576,24.7463751 9.43504,28.1146236 13.18976,28.8784809 C12.50048,29.0688362 11.7752,29.1714851 11.0264,29.1714851 C10.49776,29.1714851 9.98352,29.118374 9.48368,29.0212474 C10.52832,32.331025 13.55792,34.7395387 17.15024,34.8074299 C14.34096,37.0418303 10.80272,38.373505 6.9576,38.373505 C6.29552,38.373505 5.64224,38.3350117 5,38.258025 C8.632,40.6207365 12.94432,42 17.57968,42" id="Fill-4" fill="#D4D4D4"></path>
    </g>
</svg>